<svg width="243" height="35" viewBox="0 0 243 35" fill="none" xmlns="http://www.w3.org/2000/svg">
<path d="M43.0056 27C42.195 27 41.4483 26.7973 40.7656 26.392C40.1043 25.9867 39.571 25.4533 39.1656 24.792C38.7603 24.1093 38.5576 23.3627 38.5576 22.552V8.408C38.5576 7.59733 38.7603 6.86133 39.1656 6.2C39.571 5.51733 40.1043 4.97333 40.7656 4.568C41.4483 4.16267 42.195 3.96 43.0056 3.96H61.5336V8.216H43.9016C43.5603 8.216 43.283 8.312 43.0696 8.504C42.8776 8.696 42.7816 8.97333 42.7816 9.336V21.624C42.7816 21.9653 42.8776 22.2427 43.0696 22.456C43.283 22.648 43.5603 22.744 43.9016 22.744H61.5336V27H43.0056ZM67.5261 33.88V29.656H78.6941C78.8008 29.656 78.8861 29.6133 78.9501 29.528C79.0355 29.464 79.0781 29.3787 79.0781 29.272V27H68.8381C68.0488 27 67.3128 26.7973 66.6301 26.392C65.9688 25.9867 65.4355 25.4533 65.0301 24.792C64.6248 24.1307 64.4221 23.3947 64.4221 22.584V8.504H68.6141V22.424C68.6141 22.5307 68.6461 22.6267 68.7101 22.712C68.7955 22.776 68.8915 22.808 68.9981 22.808H78.6941C78.8008 22.808 78.8861 22.776 78.9501 22.712C79.0355 22.6267 79.0781 22.5307 79.0781 22.424V8.504H83.2701V29.464C83.2701 30.2747 83.0781 31.0107 82.6941 31.672C82.3101 32.3547 81.7768 32.888 81.0941 33.272C80.4328 33.6773 79.6968 33.88 78.8861 33.88H67.5261ZM86.7124 27V2.36H90.9044V8.44H101.144C101.955 8.44 102.691 8.64267 103.352 9.048C104.035 9.45333 104.568 9.98667 104.952 10.648C105.358 11.3093 105.56 12.0453 105.56 12.856V22.584C105.56 23.3947 105.358 24.1307 104.952 24.792C104.568 25.4533 104.035 25.9867 103.352 26.392C102.691 26.7973 101.955 27 101.144 27H86.7124ZM91.2884 22.808H100.984C101.091 22.808 101.176 22.776 101.24 22.712C101.326 22.6267 101.368 22.5307 101.368 22.424V13.016C101.368 12.9093 101.326 12.824 101.24 12.76C101.176 12.6747 101.091 12.632 100.984 12.632H91.2884C91.1817 12.632 91.0857 12.6747 91.0004 12.76C90.9364 12.824 90.9044 12.9093 90.9044 13.016V22.424C90.9044 22.5307 90.9364 22.6267 91.0004 22.712C91.0857 22.776 91.1817 22.808 91.2884 22.808ZM112.376 27C111.565 27 110.829 26.7973 110.168 26.392C109.507 25.9867 108.973 25.4533 108.568 24.792C108.163 24.1307 107.96 23.3947 107.96 22.584V12.856C107.96 12.0453 108.163 11.3093 108.568 10.648C108.973 9.98667 109.507 9.45333 110.168 9.048C110.829 8.64267 111.565 8.44 112.376 8.44H122.392C123.203 8.44 123.939 8.64267 124.6 9.048C125.283 9.45333 125.816 9.98667 126.2 10.648C126.605 11.3093 126.808 12.0453 126.808 12.856V19.832H112.152V22.424C112.152 22.5307 112.184 22.6267 112.248 22.712C112.333 22.776 112.429 22.808 112.536 22.808H126.808V27H112.376ZM112.152 16.056H122.616V13.016C122.616 12.9093 122.573 12.824 122.488 12.76C122.424 12.6747 122.339 12.632 122.232 12.632H112.536C112.429 12.632 112.333 12.6747 112.248 12.76C112.184 12.824 112.152 12.9093 112.152 13.016V16.056ZM129.961 27V12.856C129.961 12.0453 130.164 11.3093 130.569 10.648C130.974 9.98667 131.508 9.45333 132.169 9.048C132.852 8.64267 133.588 8.44 134.377 8.44H144.681V12.632H134.537C134.43 12.632 134.334 12.6747 134.249 12.76C134.185 12.824 134.153 12.9093 134.153 13.016V27H129.961ZM149.65 34.328V30.104H160.818C160.925 30.104 161.01 30.0613 161.074 29.976C161.16 29.912 161.202 29.8267 161.202 29.72V27H150.962C150.173 27 149.437 26.7973 148.754 26.392C148.093 25.9867 147.56 25.4533 147.154 24.792C146.749 24.1307 146.546 23.3947 146.546 22.584V12.856C146.546 12.0453 146.749 11.3093 147.154 10.648C147.56 9.98667 148.093 9.45333 148.754 9.048C149.437 8.64267 150.173 8.44 150.962 8.44H161.01C161.821 8.44 162.557 8.64267 163.218 9.048C163.88 9.45333 164.402 9.98667 164.786 10.648C165.192 11.3093 165.394 12.0453 165.394 12.856V29.912C165.394 30.744 165.202 31.4907 164.818 32.152C164.434 32.8133 163.901 33.336 163.218 33.72C162.557 34.1253 161.821 34.328 161.01 34.328H149.65ZM151.122 22.808H160.818C160.925 22.808 161.01 22.776 161.074 22.712C161.16 22.6267 161.202 22.5307 161.202 22.424V13.016C161.202 12.9093 161.16 12.824 161.074 12.76C161.01 12.6747 160.925 12.632 160.818 12.632H151.122C151.016 12.632 150.92 12.6747 150.834 12.76C150.77 12.824 150.738 12.9093 150.738 13.016V22.424C150.738 22.5307 150.77 22.6267 150.834 22.712C150.92 22.776 151.016 22.808 151.122 22.808ZM168.055 27V12.856C168.055 12.0453 168.257 11.3093 168.663 10.648C169.068 9.98667 169.601 9.45333 170.263 9.048C170.945 8.64267 171.681 8.44 172.471 8.44H182.775V12.632H172.631C172.524 12.632 172.428 12.6747 172.343 12.76C172.279 12.824 172.247 12.9093 172.247 13.016V27H168.055ZM189.627 27C188.816 27 188.07 26.7973 187.387 26.392C186.726 25.9867 186.192 25.4533 185.787 24.792C185.403 24.1307 185.211 23.3947 185.211 22.584V15.608H199.867V13.016C199.867 12.9093 199.824 12.824 199.739 12.76C199.675 12.6747 199.59 12.632 199.483 12.632H185.211V8.44H199.643C200.454 8.44 201.19 8.64267 201.851 9.048C202.534 9.45333 203.067 9.98667 203.451 10.648C203.856 11.3093 204.059 12.0453 204.059 12.856V27H189.627ZM189.787 22.808H199.867V19.384H189.403V22.424C189.403 22.5307 189.435 22.6267 189.499 22.712C189.584 22.776 189.68 22.808 189.787 22.808ZM206.681 27V8.44H229.689C230.521 8.44 231.268 8.64267 231.929 9.048C232.59 9.45333 233.113 9.98667 233.497 10.648C233.902 11.3093 234.105 12.0453 234.105 12.856V27H229.945V13.016C229.945 12.9093 229.902 12.824 229.817 12.76C229.732 12.6747 229.636 12.632 229.529 12.632H222.905C222.798 12.632 222.702 12.6747 222.617 12.76C222.553 12.824 222.521 12.9093 222.521 13.016V27H218.297V13.016C218.297 12.9093 218.254 12.824 218.169 12.76C218.105 12.6747 218.02 12.632 217.913 12.632H211.257C211.15 12.632 211.054 12.6747 210.969 12.76C210.905 12.824 210.873 12.9093 210.873 13.016V27H206.681Z" fill="#FCEE0A"/>
<g clip-path="url(#clip0_2_8)">
<path d="M16 0C16.25 0 16.4937 0.00625 16.7437 0.01875C17.45 0.05 17.8312 0.825 17.4812 1.44375L11.0937 12.5C10.7062 13.1687 9.74374 13.1687 9.36249 12.5L5.17499 5.25625C4.94999 4.8625 5.01249 4.3625 5.35624 4.05625C8.18124 1.53125 11.9125 0 16 0ZM12.1 30.75C11.875 31.1438 11.4062 31.3375 10.975 31.1938C6.98749 29.875 3.68749 27.0313 1.78124 23.35C1.45624 22.7188 1.93749 22 2.64374 22H15.425C16.1937 22 16.675 22.8313 16.2937 23.5L12.1062 30.75H12.1ZM29.4687 24.6375C29.0875 25.2313 28.225 25.175 27.8687 24.5625L21.4875 13.5C21.1 12.8313 21.5812 12 22.3562 12H30.7187C31.175 12 31.575 12.3063 31.6687 12.7563C31.8875 13.8063 32 14.8875 32 16C32 19.1813 31.0687 22.1438 29.4687 24.6375Z" fill="#FCEE0A"/>
<path d="M21.025 0.806246C25.0125 2.125 28.3125 4.96875 30.2188 8.65C30.5437 9.28125 30.0625 10 29.3563 10H16.575C15.8063 10 15.325 9.16875 15.7063 8.5L19.8937 1.25C20.1187 0.856246 20.5875 0.662496 21.0187 0.806246H21.025ZM0 16C0 12.8187 0.93125 9.85625 2.53125 7.3625C2.9125 6.76875 3.775 6.825 4.13125 7.4375L10.5125 18.5C10.9 19.1687 10.4188 20 9.64375 20H1.28125C0.825 20 0.425 19.6937 0.33125 19.2437C0.1125 18.2 0 17.1125 0 16ZM16 32C15.75 32 15.5063 31.9937 15.2563 31.9812C14.55 31.95 14.1625 31.175 14.5188 30.5562L20.9062 19.5C21.2937 18.8312 22.2563 18.8312 22.6375 19.5L26.8188 26.7437C27.0438 27.1375 26.9813 27.6375 26.6375 27.9437C23.8188 30.4687 20.0875 32 16 32Z" fill="#00F0FF"/>
</g>
<defs>
<clipPath id="clip0_2_8">
<rect width="32" height="32" fill="white"/>
</clipPath>
</defs>
</svg>
